# xmcd CD database file
#
# Track frame offsets:
#	150
#	17507
#	28365
#	51667
#	59955
#	73910
#	86825
#	101010
#	113197
#	135125
#	151105
#	166402
#	180470
#	186522
#
# Disc length: 2659 seconds
#
# Revision: 2
# Processed by: cddbd v1.5.2PL0 Copyright (c) Steve Scherf et al.
# Submitted via: CDex 1.82
#
DISCID=ca0a610e
DTITLE=Simon and Garfunkel - Greatest Hits
DYEAR=1900
DGENRE=Folk
TTITLE0=Mrs. Robinson
TTITLE1=For Emily, Whenever I May Find Her
TTITLE2=The Boxer
TTITLE3=The 59th Street Bridge Song
TTITLE4=The Sound of Silence
TTITLE5=I am a Rock
TTITLE6=Scarborough Fair Canticle
TTITLE7=Homeward Bound
TTITLE8=Bridge Over Troubled Water
TTITLE9=America
TTITLE10=Kathy's Song
TTITLE11=El Condor Pasa
TTITLE12=Bookends
TTITLE13=Cecilia
EXTD=
EXTT0=
EXTT1=
EXTT2=
EXTT3=
EXTT4=
EXTT5=
EXTT6=
EXTT7=
EXTT8=
EXTT9=
EXTT10=
EXTT11=
EXTT12=
EXTT13=
PLAYORDER=
